<svg aria-hidden="true" style="position: absolute; width: 0; height: 0; overflow: hidden;" version="1.1"
     xmlns="http://www.w3.org/2000/svg">
    <defs>
        <symbol id="icon-arrow-right" viewBox="0 0 16 8">
            <path d="M12.3536 4.35355C12.5488 4.15829 12.5488 3.84171 12.3536 3.64645L9.17157 0.464466C8.97631 0.269204 8.65973 0.269204 8.46447 0.464466C8.2692 0.659728 8.2692 0.976311 8.46447 1.17157L11.2929 4L8.46447 6.82843C8.2692 7.02369 8.2692 7.34027 8.46447 7.53553C8.65973 7.7308 8.97631 7.7308 9.17157 7.53553L12.3536 4.35355ZM0 4.5H12V3.5H0V4.5Z"
                  fill="white"/>
        </symbol>
        <symbol id="icon-arrow" viewBox="0 0 32 32">
            <path d="M14.459 21.973l-12.325-11.946 1.541-1.493 12.325 11.946 12.324-11.945 1.541 1.493-13.866 13.439-1.541-1.493 0.001-0.001z"></path>
        </symbol>
        <symbol id="icon-big-arrow" viewBox="0 0 32 32">
            <path stroke-linejoin="miter" stroke-linecap="butt" stroke-miterlimit="4" stroke-width="3.5556"
                  d="M30.287 1.257l-28 28"></path>
            <path stroke-linejoin="miter" stroke-linecap="butt" stroke-miterlimit="4" stroke-width="3.5556"
                  d="M32 1.778h-32"></path>
            <path stroke-linejoin="miter" stroke-linecap="butt" stroke-miterlimit="4" stroke-width="3.5556"
                  d="M30.222 32v-32"></path>
        </symbol>
        <symbol id="icon-burger-menu" viewBox="0 0 32 32">
            <path stroke-linejoin="round" stroke-linecap="round" stroke-miterlimit="4" stroke-width="2"
                  d="M4 16h16M4 8h24M4 24h24"></path>
        </symbol>
        <symbol id="icon-card" viewBox="0 0 32 32">
            <path stroke-linejoin="round" stroke-linecap="round" stroke-miterlimit="4" stroke-width="1.1429"
                  d="M6 13.061l1.943 11.996c0.056 0.343 0.228 0.655 0.486 0.88s0.586 0.348 0.924 0.348h13.294c0.338-0 0.665-0.124 0.923-0.349s0.43-0.537 0.485-0.88l1.944-11.996M6 13.061h4.286M6 13.061h-1.429M26 13.061h-4.286M26 13.061h1.429M10.286 13.061l1.429-7.347M10.286 13.061h11.429M21.714 13.061l-1.429-7.347M11.714 18.939v1.469M20.286 18.939v1.469M16 18.939v1.469"></path>
        </symbol>
        <symbol id="icon-facebook" viewBox="0 0 32 32">
            <path fill="#707070" style="fill: var(--color1, #707070)"
                  d="M32 16.098c-0-3.077-0.877-6.089-2.526-8.68s-4.002-4.653-6.779-5.94c-2.778-1.288-5.864-1.747-8.893-1.325s-5.875 1.71-8.199 3.709-4.031 4.627-4.917 7.572c-0.886 2.945-0.915 6.084-0.083 9.044s2.49 5.62 4.778 7.662c2.288 2.042 5.109 3.382 8.13 3.86v-11.24h-4.070v-4.662h4.063v-3.549c0-4.033 2.389-6.263 6.044-6.263 1.2 0.017 2.397 0.122 3.582 0.315v3.961h-2.017c-1.989 0-2.607 1.243-2.607 2.514v3.022h4.437l-0.711 4.653h-3.731v11.249c3.763-0.6 7.19-2.531 9.665-5.446s3.834-6.623 3.835-10.456z"></path>
        </symbol>
        <symbol id="icon-check" viewBox="0 0 32 32">
            <path fill="#fff" style="fill: var(--color2, #fff)"
                  d="M13 23l-6-5.957 2.1-2.085 3.9 3.872 9.9-9.83 2.1 2.085-12 11.915z"></path>
        </symbol>
        <symbol id="icon-heart" viewBox="0 0 32 32">
            <path stroke-linejoin="round" stroke-linecap="butt" stroke-miterlimit="4" stroke-width="1.1429"
                  d="M16 10.2c-2.271-2.391-6.435-3.122-8.707-0.731-2.269 2.391-1.933 5.61 0 8.411 1.935 2.802 4.97 5.32 8.707 8.405 3.737-3.085 6.772-5.604 8.707-8.405 1.933-2.802 2.27-6.020 0-8.411-2.272-2.391-6.436-1.66-8.707 0.731z"></path>
        </symbol>
        <symbol id="icon-instagram" viewBox="0 0 32 32">
            <path fill="#707070" style="fill: var(--color1, #707070)"
                  d="M16 32c8.837 0 16-7.163 16-16s-7.163-16-16-16c-8.837 0-16 7.163-16 16s7.163 16 16 16z"></path>
            <path fill="#fff" style="fill: var(--color2, #fff)"
                  d="M16.030 7.702c2.729 0 3.051 0.012 4.128 0.059 0.649 0.008 1.291 0.125 1.9 0.347 0.442 0.164 0.843 0.422 1.173 0.757 0.339 0.327 0.601 0.724 0.765 1.164 0.226 0.601 0.344 1.236 0.351 1.878 0.050 1.066 0.060 1.387 0.060 4.088s0 3.020-0.060 4.086c-0.007 0.641-0.126 1.276-0.351 1.878-0.17 0.436-0.43 0.832-0.764 1.163s-0.734 0.589-1.174 0.758c-0.609 0.222-1.251 0.34-1.9 0.347-1.077 0.048-1.399 0.059-4.128 0.059s-3.051-0.012-4.128-0.059c-0.649-0.008-1.291-0.125-1.9-0.347-0.44-0.169-0.84-0.427-1.174-0.758s-0.594-0.727-0.764-1.163c-0.225-0.601-0.344-1.236-0.351-1.878-0.051-1.066-0.060-1.387-0.060-4.086s0-3.022 0.060-4.088c0.007-0.641 0.126-1.276 0.351-1.878 0.164-0.44 0.425-0.837 0.765-1.164 0.33-0.334 0.731-0.593 1.173-0.757 0.609-0.222 1.251-0.34 1.9-0.347 1.077-0.048 1.399-0.059 4.128-0.059zM16.030 5.882c-2.775 0-3.126 0-4.213 0.059-0.848 0.019-1.687 0.18-2.481 0.476-0.679 0.259-1.296 0.657-1.811 1.166s-0.916 1.12-1.178 1.792c-0.3 0.785-0.463 1.614-0.481 2.453-0.051 1.080-0.063 1.428-0.063 4.171s0 3.094 0.063 4.169c0.019 0.84 0.181 1.67 0.481 2.456 0.263 0.671 0.664 1.281 1.179 1.79s1.131 0.906 1.81 1.165c0.794 0.297 1.633 0.458 2.481 0.476 1.089 0.050 1.443 0.062 4.213 0.062s3.126-0.012 4.213-0.062c0.849-0.018 1.688-0.179 2.481-0.476 0.679-0.259 1.295-0.656 1.81-1.165s0.916-1.119 1.179-1.79c0.3-0.786 0.462-1.616 0.481-2.456 0.050-1.078 0.063-1.428 0.063-4.169s-0-3.094-0.063-4.171c-0.018-0.839-0.181-1.669-0.481-2.453-0.262-0.672-0.664-1.282-1.178-1.792s-1.131-0.907-1.811-1.166c-0.794-0.296-1.633-0.457-2.481-0.476-1.089-0.050-1.443-0.059-4.213-0.059z"></path>
            <path fill="#fff" style="fill: var(--color2, #fff)"
                  d="M16.032 10.943c-1.071-0-2.118 0.296-3.008 0.851s-1.585 1.346-1.995 2.27c-0.41 0.924-0.518 1.942-0.309 2.923s0.724 1.883 1.481 2.591c0.757 0.708 1.722 1.19 2.772 1.385s2.139 0.095 3.128-0.287c0.989-0.383 1.835-1.031 2.43-1.863s0.913-1.81 0.913-2.811c0-0.664-0.139-1.322-0.411-1.936s-0.67-1.171-1.173-1.641-1.099-0.842-1.756-1.097c-0.657-0.254-1.361-0.385-2.071-0.385zM16.032 19.286c-0.695 0-1.375-0.193-1.953-0.554s-1.028-0.874-1.294-1.474c-0.266-0.6-0.335-1.261-0.2-1.898s0.471-1.222 0.962-1.681c0.492-0.459 1.118-0.772 1.8-0.898s1.388-0.061 2.030 0.188 1.191 0.67 1.577 1.21c0.386 0.54 0.592 1.176 0.591 1.825-0.001 0.87-0.372 1.704-1.031 2.319s-1.552 0.96-2.483 0.96v0.002z"></path>
            <path fill="#fff" style="fill: var(--color2, #fff)"
                  d="M21.444 12.205c0.664 0 1.203-0.566 1.203-1.265s-0.539-1.265-1.203-1.265c-0.664 0-1.203 0.566-1.203 1.265s0.539 1.265 1.203 1.265z"></path>
        </symbol>
        <symbol id="icon-logo" viewBox="0 0 72 32">
            <path fill="#fd5137" style="fill: var(--color3, #fd5137)"
                  d="M41.709 0h4.806v17.719c0 1.080 0.146 1.875 0.442 2.4s0.856 0.775 1.698 0.775c0.432-0.003 0.861-0.070 1.274-0.199 0.451-0.136 0.888-0.313 1.308-0.528v4.72c-0.624 0.308-1.284 0.539-1.963 0.686-0.644 0.139-1.301 0.211-1.96 0.213-1.721 0-3.079-0.61-4.076-1.83s-1.498-2.974-1.505-5.262l-0.024-18.692z"></path>
            <path fill="#fd5137" style="fill: var(--color3, #fd5137)"
                  d="M52.795 16.066c-0.025-1.352 0.231-2.695 0.751-3.942 0.474-1.109 1.167-2.109 2.038-2.938 0.854-0.805 1.86-1.428 2.958-1.83 1.135-0.421 2.336-0.633 3.546-0.627h0.197c1.211-0.005 2.413 0.214 3.546 0.644 1.103 0.417 2.11 1.057 2.958 1.882 0.886 0.873 1.58 1.924 2.038 3.085 0.522 1.356 0.777 2.803 0.751 4.257 0.023 1.352-0.233 2.695-0.751 3.942-0.474 1.109-1.167 2.109-2.038 2.938-0.854 0.805-1.86 1.427-2.958 1.83-1.139 0.425-2.345 0.641-3.559 0.638h-0.197c-1.21 0.006-2.41-0.206-3.546-0.627-1.098-0.403-2.105-1.025-2.958-1.831-0.87-0.829-1.564-1.829-2.038-2.938-0.52-1.247-0.775-2.59-0.751-3.942l0.014-0.542zM62.077 11.35c-0.587-0.019-1.172 0.079-1.722 0.288s-1.053 0.526-1.481 0.932c-0.849 0.814-1.275 1.979-1.277 3.496v0.528c0 1.517 0.426 2.683 1.277 3.496 0.428 0.406 0.931 0.724 1.481 0.933s1.135 0.307 1.722 0.287h0.197c0.587 0.019 1.172-0.078 1.722-0.288s1.053-0.526 1.481-0.932c0.849-0.814 1.274-1.979 1.274-3.496v-0.528c0-1.52-0.424-2.685-1.274-3.496-0.865-0.819-2.017-1.258-3.203-1.22h-0.197z"></path>
            <path fill="#fd5137" style="fill: var(--color3, #fd5137)"
                  d="M5.734 22.49l1.294 3.428c-0.288 0.418-0.661 0.768-1.094 1.028-0.432 0.253-0.924 0.383-1.423 0.377-0.385 0.005-0.767-0.061-1.128-0.195-0.363-0.146-0.718-0.312-1.063-0.497v5.039c0.432 0.129 0.876 0.212 1.325 0.247 0.557 0.055 1.063 0.082 1.522 0.082 0.883 0.017 1.756-0.18 2.547-0.576 0.757-0.397 1.434-0.934 1.994-1.584 0.611-0.705 1.129-1.487 1.539-2.328 0.449-0.909 0.841-1.846 1.175-2.804l0.628-1.82c-0.843 0.103-1.691 0.156-2.541 0.158-1.608-0.001-3.21-0.187-4.775-0.555z"></path>
            <path fill="#fd5137" style="fill: var(--color3, #fd5137)"
                  d="M37.69 12.337c-0.458-1.161-1.152-2.212-2.038-3.085-0.848-0.825-1.855-1.465-2.958-1.882-0.571-0.219-1.161-0.382-1.763-0.487-0.377 1.543-0.926 3.038-1.637 4.456 1.136-0.003 2.229 0.432 3.057 1.217 0.849 0.814 1.274 1.979 1.274 3.496v0.528c0 1.517-0.425 2.683-1.274 3.496-0.428 0.406-0.931 0.723-1.481 0.932s-1.135 0.307-1.722 0.288h-0.197c-0.587 0.020-1.173-0.078-1.722-0.287s-1.053-0.527-1.481-0.933c-0.668-0.662-1.092-1.534-1.202-2.471-1.254 1.137-2.64 2.118-4.127 2.921 0.474 1.108 1.168 2.107 2.038 2.934 0.854 0.805 1.86 1.428 2.958 1.83 1.134 0.43 2.335 0.652 3.546 0.655h0.197c1.21 0.005 2.41-0.207 3.546-0.627 1.098-0.403 2.104-1.026 2.958-1.83 0.87-0.829 1.564-1.829 2.038-2.938 0.518-1.247 0.774-2.59 0.751-3.942 0.025-1.46-0.234-2.911-0.761-4.271z"></path>
            <path fill="#fd5137" style="fill: var(--color3, #fd5137)"
                  d="M13.396 7.256l-3.95 12.176-4.415-12.176h-5.030l5.733 15.233c1.566 0.369 3.168 0.555 4.775 0.555 0.849-0.002 1.698-0.055 2.541-0.158l5.387-15.631h-5.040z"></path>
            <path fill="#fd5137" style="fill: var(--color3, #fd5137)"
                  d="M24.481 16.594v-0.528c0-1.52 0.426-2.685 1.277-3.496 0.428-0.406 0.931-0.723 1.481-0.932s1.135-0.307 1.722-0.288h0.34c0.711-1.418 1.26-2.913 1.637-4.456-0.589-0.105-1.185-0.157-1.783-0.158h-0.197c-1.21-0.006-2.41 0.206-3.546 0.627-1.098 0.402-2.105 1.025-2.958 1.83-0.87 0.829-1.564 1.829-2.038 2.938-0.52 1.247-0.775 2.59-0.751 3.942v0.528c-0.025 1.352 0.231 2.695 0.751 3.942 1.487-0.803 2.872-1.783 4.127-2.921-0.046-0.341-0.066-0.684-0.061-1.028z"></path>
        </symbol>
        <symbol id="icon-microphone" viewBox="0 0 32 32">
            <path d="M24.922 23.233c-2.205 2.137-5.069 3.388-8.136 3.572v4.433c0 0.421-0.352 0.762-0.786 0.762s-0.786-0.341-0.786-0.762v-4.433c-3.066-0.183-5.931-1.435-8.136-3.572-2.392-2.319-3.71-5.39-3.71-8.648 0-0.421 0.352-0.762 0.786-0.762s0.786 0.341 0.786 0.762c0 5.911 4.961 10.72 11.059 10.72s11.059-4.809 11.059-10.72c0-0.421 0.352-0.762 0.786-0.762s0.786 0.341 0.786 0.762c0 3.258-1.318 6.329-3.71 8.648zM8.732 14.585v-7.541c0-3.884 3.26-7.045 7.268-7.045s7.268 3.16 7.268 7.045v7.54c0 3.884-3.26 7.045-7.268 7.045s-7.268-3.16-7.268-7.044zM10.305 14.585c0 3.044 2.555 5.521 5.695 5.521s5.695-2.477 5.695-5.521v-7.541c0-3.044-2.555-5.521-5.695-5.521s-5.695 2.477-5.695 5.521v7.541z"></path>
        </symbol>
        <symbol id="icon-minus" viewBox="0 0 32 32">
            <path fill="#fff" style="fill: var(--color2, #fff)" d="M24 15v2h-16v-2h16z"></path>
        </symbol>
        <symbol id="icon-person" viewBox="0 0 32 32">
            <path stroke-linejoin="round" stroke-linecap="round" stroke-miterlimit="4" stroke-width="1.1429"
                  d="M25.143 26.286v-1.837c0-3.043-2.924-5.51-6.531-5.51h-5.224c-3.607 0-6.531 2.467-6.531 5.51v1.837M20.571 10.122c0 1.169-0.482 2.29-1.339 3.117s-2.020 1.291-3.232 1.291-2.375-0.464-3.232-1.291c-0.857-0.827-1.339-1.948-1.339-3.117s0.482-2.29 1.339-3.117c0.857-0.827 2.020-1.291 3.232-1.291s2.375 0.464 3.232 1.291c0.857 0.827 1.339 1.948 1.339 3.117z"></path>
        </symbol>
        <symbol id="icon-plus" viewBox="0 0 32 32">
            <path fill="#fff" style="fill: var(--color2, #fff)" d="M15 8h2v16h-2v-16z"></path>
            <path fill="#fff" style="fill: var(--color2, #fff)" d="M24 15v2h-16v-2h16z"></path>
        </symbol>
        <symbol id="icon-search" viewBox="0 0 32 32">
            <path stroke-linejoin="miter" stroke-linecap="butt" stroke-miterlimit="4" stroke-width="1.6842"
                  d="M18.415 23.944c-5.953 0-10.779-4.826-10.779-10.779s4.826-10.779 10.779-10.779c5.953 0 10.779 4.826 10.779 10.779s-4.826 10.779-10.779 10.779z"></path>
            <path stroke-linejoin="miter" stroke-linecap="round" stroke-miterlimit="4" stroke-width="1.6842"
                  d="M2.245 29.333l5.389-5.389"></path>
        </symbol>
        <symbol id="icon-telegram" viewBox="0 0 32 32">
            <path fill="#707070" style="fill: var(--color1, #707070)"
                  d="M16 32c8.837 0 16-7.163 16-16s-7.163-16-16-16c-8.837 0-16 7.163-16 16s7.163 16 16 16z"></path>
            <path fill="#fff" style="fill: var(--color2, #fff)"
                  d="M23.79 9.498c-0.013-0.062-0.041-0.12-0.083-0.167s-0.095-0.084-0.154-0.105c-0.225-0.044-0.457-0.027-0.673 0.047 0 0-14.952 5.376-15.808 5.971-0.183 0.128-0.237 0.204-0.275 0.289-0.147 0.424 0.313 0.612 0.313 0.612l3.854 1.256c0.064 0.016 0.13 0.016 0.194 0 0.877-0.555 8.82-5.57 9.28-5.739 0.071-0.021 0.126 0 0.111 0.052-0.185 0.645-7.085 6.777-7.085 6.777-0.017 0.022-0.031 0.046-0.043 0.071l-0.358 3.823c0 0-0.152 1.171 1.019 0 0.827-0.827 1.626-1.519 2.027-1.854 1.325 0.915 2.752 1.927 3.366 2.456 0.104 0.1 0.226 0.178 0.361 0.229s0.278 0.076 0.421 0.072c0.583-0.021 0.747-0.664 0.747-0.664s2.726-10.968 2.816-12.437c0-0.142 0.021-0.237 0.021-0.334 0.001-0.121-0.016-0.241-0.052-0.356z"></path>
        </symbol>
    </defs>
</svg>
